<?xml version="1.0" encoding="UTF-8" standalone="no"?>
<svg
   xmlns:dc="http://purl.org/dc/elements/1.1/"
   xmlns:cc="http://creativecommons.org/ns#"
   xmlns:rdf="http://www.w3.org/1999/02/22-rdf-syntax-ns#"
   xmlns:svg="http://www.w3.org/2000/svg"
   xmlns="http://www.w3.org/2000/svg"
   xmlns:sodipodi="http://sodipodi.sourceforge.net/DTD/sodipodi-0.dtd"
   xmlns:inkscape="http://www.inkscape.org/namespaces/inkscape"
   width="120mm"
   height="120mm"
   viewBox="0 0 120 120"
   version="1.1"
   id="svg200"
   inkscape:version="1.0.2 (e86c870879, 2021-01-15)"
   sodipodi:docname="female.svg">
  <defs
     id="defs194">
    <linearGradient
       id="a"
       x1="15728"
       x2="15858"
       y1="3765.8"
       y2="17338"
       gradientUnits="userSpaceOnUse"
       gradientTransform="matrix(0.01,0,0,0.01,17.223095,-3.8538095)">
      <stop
         stop-color="#fff"
         offset="0"
         id="stop105" />
      <stop
         stop-color="#EB9494"
         offset="1"
         id="stop107" />
    </linearGradient>
  </defs>
  <sodipodi:namedview
     id="base"
     pagecolor="#ffffff"
     bordercolor="#666666"
     borderopacity="1.0"
     inkscape:pageopacity="0.0"
     inkscape:pageshadow="2"
     inkscape:zoom="0.7"
     inkscape:cx="615.35944"
     inkscape:cy="380.63554"
     inkscape:document-units="mm"
     inkscape:current-layer="layer1"
     inkscape:document-rotation="0"
     showgrid="false"
     inkscape:window-width="1500"
     inkscape:window-height="1024"
     inkscape:window-x="50"
     inkscape:window-y="28"
     inkscape:window-maximized="0" />
  <metadata
     id="metadata197">
    <rdf:RDF>
      <cc:Work
         rdf:about="">
        <dc:format>image/svg+xml</dc:format>
        <dc:type
           rdf:resource="http://purl.org/dc/dcmitype/StillImage" />
        <dc:title></dc:title>
      </cc:Work>
    </rdf:RDF>
  </metadata>
  <g
     inkscape:label="Ebene 1"
     inkscape:groupmode="layer"
     id="layer1">
    <circle
       class="fil1"
       cx="62.913963"
       cy="59.596573"
       r="54.900002"
       id="circle114"
       style="fill:#e6e6e6;stroke-width:0.01" />
    <path
       class="fil2"
       d="m 45.943962,68.616576 c -0.19,0.15 -0.47,0.209999 -1.19,0.459999 -3.78,1.31 -7.54,2.86 -11.28,4.690001 -2.36,1.15 -2.13,0.729999 -3.15,3.119999 -2.63,6.120001 -5.13,12.52 -6.97,18.67 6.19,6.669995 14.05,11.769995 22.91,14.639995 3.33,0.9 6.790005,1.64 10.320005,2.25 1.89999,0.22 3.84,0.35 5.8,0.37 h 1.20999 c 1.91001,-0.03 3.79001,-0.15 5.65001,-0.37 3.51999,-0.61 6.98999,-1.35 10.31999,-2.25 8.86,-2.87 16.71001,-7.97 22.910003,-14.639995 -1.84,-6.15 -4.340003,-12.549999 -6.970003,-18.67 -1.02,-2.39 -0.78999,-1.969999 -3.16,-3.119999 -3.73,-1.830001 -7.49,-3.380001 -11.27,-4.690001 -0.51,-0.179999 -0.79,-0.259999 -0.98999,-0.339999 l -0.05,-0.12 c -0.72,-1.24 -1.56999,-2.39 -2.53999,-3.47 4.59,0.319999 8.31999,-0.820001 10.65999,-3.650001 2.26,-2.75 2.39,-4.789999 2.51,-8.119999 0.23001,-6.53 -0.26999,-13.55 -2.07,-20.09 -1.75,-6.39 -4.73,-12.32 -9.46,-16.88 -4.52999,-4.360002 -9.81999,-7.8000017 -16.21999,-7.8000017 -4.51001,0 -8.42,0.830001 -11.18001,5.2000007 -2.719995,-0.35 -4.199995,0.86 -6.009995,2.600001 -4.73,4.56 -7.71,10.49 -9.46,16.88 -1.8,6.54 -2.3,13.56 -2.07,20.09 0.12,3.33 0.24,5.369999 2.51,8.119999 2.5,3.030001 6.6,4.120001 11.63,3.570001 h 0.06 c -0.93,1.06 -1.74,2.25 -2.45,3.55 z"
       id="path116"
       style="fill:#1a1617;stroke-width:0.01" />
    <path
       class="fil3"
       d="m 48.333962,65.076575 c 0.99,-1.059999 2.17,-2.049999 3.490005,-2.989999 l 0.68999,-3.200001 c -2.389995,-2.78 -4.189995,-6.5 -5.089995,-10.75 -1.81,0.04 -3.72,-2.069999 -4.46,-5.089999 -0.6,-2.4 -0.64,-4.340001 0.03,-5.57 1.14,-2.090001 3.18,-0.79 3.99,0.76 0.75,-6.34 3.44,-11.780001 7.210005,-15.12 2.73,3.08 5.95999,5.63 10.20999,6.1 8.13001,0.9 12.43001,3.79 14.39001,8.59 0.92,-1.34 2.68999,-2.22 3.73,-0.33 0.65999,1.229999 0.62,3.17 0.03,5.57 -0.7,2.839999 -2.43,4.88 -4.13999,5.07 -0.88,4.11 -2.58,7.72 -4.85,10.47 l -0.05,0.299999 0.73001,3.370001 c 1.14,0.77 2.28,1.739999 3.2,2.91 4.60999,0.329999 8.35999,-0.810001 10.70999,-3.65 2.26,-2.75 2.39,-4.79 2.51,-8.12 0.23001,-6.53 -0.26999,-13.56 -2.07,-20.1 -1.75,-6.39 -4.73,-12.32 -9.46,-16.87 -4.52999,-4.360002 -9.81999,-7.8100017 -16.21999,-7.8100017 -4.51001,0 -8.42,0.84 -11.18001,5.2000007 -2.719995,-0.349999 -4.199995,0.870001 -6.009995,2.610001 -4.73,4.55 -7.71,10.48 -9.46,16.87 -1.8,6.54 -2.3,13.57 -2.07,20.1 0.12,3.33 0.24,5.37 2.51,8.12 2.5,3.03 6.6,4.119999 11.63,3.559999 z"
       id="path118"
       style="fill:#3d3d3d;stroke-width:0.01" />
    <path
       class="fil4"
       d="m 78.793967,37.806576 c 0.92,-1.34 2.68999,-2.22 3.73,-0.33 0.65999,1.229999 0.62,3.17 0.03,5.57 -0.7,2.839999 -2.43,4.88 -4.13999,5.07 -0.88,4.11 -2.58,7.72 -4.85,10.47 l -0.05,0.299999 0.70001,3.210001 -0.06,-0.01 c 0.06,0.19 0.12001,0.37 0.17001,0.549999 l 0.03,0.11 c 0.24,0.880001 0.47,1.810001 0.67,2.800001 1.39,7.97 -1.46,15.43 -4.82,23.159999 -1.86,1.98 -4.65,3.51 -7.19001,3.4 -2.57999,0.11 -5.42999,-1.47 -7.28,-3.51 -3.12999,-7.189999 -5.799995,-14.16 -4.999995,-21.529999 0.24,-1.55 0.580005,-3.01 0.950005,-4.320001 l 0.14,-0.659999 0.68999,-3.200001 c -2.389995,-2.78 -4.189995,-6.5 -5.089995,-10.75 -1.81,0.04 -3.72,-2.069999 -4.46,-5.089999 -0.6,-2.4 -0.64,-4.340001 0.03,-5.57 1.14,-2.090001 3.18,-0.79 3.99,0.76 0.75,-6.34 3.44,-11.780001 7.210005,-15.12 2.73,3.08 5.95999,5.63 10.20999,6.1 8.13001,0.9 12.43001,3.79 14.39001,8.59 z"
       id="path120"
       style="fill:#f6d5b8;stroke-width:0.01" />
    <path
       class="fil5"
       d="m 47.283962,47.456576 c -0.36,-1.660001 -0.55,-3.34 -0.59,-5.03 -0.03,-1.09 0.01,-2.17 0.11,-3.26 -0.09,-0.12 -0.18,-0.24 -0.29,-0.36 -0.34,-0.37 -0.96,-0.850001 -1.52,-0.81 -0.42,0.04 -0.69,0.38 -0.86,0.7 -0.71,1.28 -0.24,3.43 0.14,4.74 0.33,1.12 0.91,2.279999 1.76,3.139999 0.33,0.340001 0.77,0.680001 1.25,0.880001 z m 31.160005,0 c 0.36,-1.660001 0.55,-3.34 0.59,-5.03 0.03,-1.09 -0.01,-2.17 -0.11,-3.26 0.09,-0.12 0.18,-0.24 0.29,-0.36 0.33999,-0.37 0.95999,-0.850001 1.51999,-0.81 0.42,0.04 0.69,0.38 0.87,0.7 0.7,1.28 0.23001,3.43 -0.14999,4.74 -0.33001,1.12 -0.91001,2.279999 -1.76001,3.139999 -0.33,0.340001 -0.75999,0.680001 -1.24999,0.880001 z"
       id="path122"
       style="fill:#e6c6aa;stroke-width:0.01" />
    <path
       class="fil5"
       d="m 52.513957,58.886575 z m 21.70001,3.210001 -0.70001,-3.210001 0.05,-0.299999 c -2.84,3.44 -6.57,5.53 -10.65,5.53 -3.96,0 -7.59,-1.97 -10.40001,-5.230001 l -0.19999,0.910001 c 1.16999,1.58 2.51,2.83 4,3.809999 2.01,1.310001 4.27999,2.130001 6.76,2.58 2.57,0.470001 5.36,0.540001 8.29,0.360001 0.75999,-0.05 0.64,-0.18 0.84,0.57 2.43,9.53 -1.71,25.069999 -16.38,21.579999 1.85,1.99 4.65,3.52 7.18999,3.41 2.54001,0.11 5.33001,-1.42 7.19001,-3.4 3.64,-8.38 7.02999,-17.46 4.01,-26.609999 z"
       id="path124"
       style="fill:#e6c6aa;stroke-width:0.01" />
    <path
       class="fil5"
       d="m 78.793967,37.806576 c -1.96,-4.8 -6.26,-7.69 -14.39001,-8.59 -4.25,-0.47 -7.47999,-3.02 -10.20999,-6.1 -3.770005,3.339999 -6.460005,8.78 -7.210005,15.11 2.17,-4.48 3.88,-9.62 7.100005,-12.78 4.17999,9.89 18.39,3.689999 24.71,12.36 z"
       id="path126"
       style="fill:#e6c6aa;stroke-width:0.01" />
    <path
       class="fil6"
       d="m 80.033957,68.616576 c 0.5,1.09 0.93001,2.209999 1.27,3.36 0.34001,1.15 0.59001,2.34 0.74,3.56 0.04,0.34 0.09,0.53 0.08,0.709999 0,0.170001 -0.07,0.340001 -0.26,0.620001 -0.38,0.58 -0.83,1.11 -1.36,1.62 -0.53,0.5 -1.13,0.97 -1.78999,1.42 l 2.37999,2.54 2.39,2.539999 -10.25,13.08 -10.23999,13.079995 -10.25,-13.079995 -10.250005,-13.08 2.39,-2.539999 2.38,-2.54 c -0.66,-0.45 -1.26,-0.92 -1.79,-1.42 -0.52,-0.51 -0.98,-1.04 -1.36,-1.62 -0.19,-0.28 -0.26,-0.45 -0.26,-0.620001 -0.01,-0.179999 0.04,-0.369999 0.08,-0.709999 0.15,-1.22 0.4,-2.41 0.74,-3.56 0.34,-1.150001 0.77,-2.27 1.27,-3.36 0.74,-1.35 1.58,-2.58 2.56,-3.680001 0.97,-1.099999 2.07,-2.05 3.320005,-2.849999 -2.630005,7.96 -0.67001,15.34 2.36,22.839999 3.03,7.51 7.14,15.149995 8.81,23.649995 1.65999,-8.5 5.78,-16.139995 8.83,-23.639995 3.04999,-7.509999 5.02,-14.879999 2.39,-22.839999 1.22,0.94 2.31,1.94 3.28,3.03 0.97,1.08 1.81999,2.24 2.53999,3.49 z"
       id="path128"
       style="fill:#383032;stroke-width:0.01" />
    <path
       class="fil7"
       d="m 62.993967,108.57657 c 1.37999,-7.08 4.46,-13.559995 7.21,-19.869995 -1.86,1.98 -4.65,3.51 -7.19001,3.4 -2.53999,0.11 -5.33999,-1.42 -7.18999,-3.41 -0.03,-0.03 -0.06,-0.07 -0.09,-0.1 2.75,6.34 5.86,12.859995 7.26001,19.979995 z"
       id="path130"
       style="fill:#ffffff;stroke-width:0.01" />
  </g>
</svg>
